<?xml version="1.0" standalone="no"?>
<!DOCTYPE svg PUBLIC "-//W3C//DTD SVG 20010904//EN"
 "http://www.w3.org/TR/2001/REC-SVG-20010904/DTD/svg10.dtd">
<svg version="1.0" xmlns="http://www.w3.org/2000/svg"
 width="300.000000pt" height="316.000000pt" viewBox="0 0 300.000000 316.000000"
 preserveAspectRatio="xMidYMid meet">
<metadata>
Created by potrace 1.10, written by Peter Selinger 2001-2011
</metadata>
<g transform="translate(0.000000,316.000000) scale(0.050000,-0.050000)"
fill="#000000" stroke="none">
<path d="M3275 6307 c14 -6 21 -18 15 -27 -6 -10 -1 -23 10 -30 11 -7 26 1 32
19 7 17 20 26 30 20 10 -6 34 -2 53 9 27 16 12 21 -65 20 -55 -1 -89 -6 -75
-11z"/>
<path d="M4568 6118 c1 -32 12 -58 25 -58 30 0 28 95 -3 107 -16 6 -23 -10
-22 -49z"/>
<path d="M2731 6125 c-5 -14 -22 -25 -37 -25 -34 0 -126 -78 -119 -101 2 -9
-23 -22 -55 -29 -33 -7 -65 -21 -71 -32 -6 -10 -32 -18 -57 -18 -25 0 -52 -6
-60 -14 -8 -8 -33 -15 -56 -15 -23 -1 -48 -19 -57 -43 -15 -41 -13 -41 58 -17
85 29 115 19 80 -28 -14 -18 -18 -26 -8 -18 9 8 29 5 43 -7 20 -16 29 -10 39
30 7 28 30 56 51 63 21 6 33 22 25 34 -9 14 -2 17 20 9 18 -7 33 -4 33 7 0 10
19 19 41 19 46 0 25 -33 -48 -73 -32 -18 -28 -21 25 -23 35 -1 58 7 51 17 -10
17 38 28 110 24 16 -1 47 11 69 27 34 23 35 28 8 28 -19 0 -39 -8 -45 -18 -16
-26 -131 35 -131 69 0 37 87 93 134 87 20 -3 68 9 106 27 60 27 64 32 25 36
-121 11 -165 7 -174 -16z"/>
<path d="M4232 6128 c-16 -41 -17 -39 63 -55 72 -13 80 -5 35 40 -16 16 -30
24 -30 16 0 -8 -12 -4 -28 9 -21 18 -30 16 -40 -10z"/>
<path d="M2960 6124 c0 -11 11 -25 25 -31 20 -8 20 -10 0 -11 -14 -1 -25 -19
-25 -41 0 -24 -16 -41 -45 -45 -26 -3 -48 -23 -52 -46 -7 -39 -7 -39 33 -3 39
35 41 35 50 0 8 -34 10 -34 12 -2 1 19 12 35 23 35 12 0 17 8 11 17 -6 9 3 34
20 55 17 21 26 28 20 15 -16 -31 81 -53 124 -28 31 18 31 20 -3 20 -25 1 -33
11 -26 31 7 17 1 30 -15 30 -15 0 -55 6 -89 13 -38 7 -63 4 -63 -9z"/>
<path d="M4 6035 c5 -74 12 -84 49 -79 49 7 82 -54 43 -79 -14 -9 -16 -17 -5
-17 12 0 39 13 60 29 36 26 41 23 59 -30 19 -55 63 -75 58 -27 -1 12 10 21 25
21 15 0 27 -17 27 -38 0 -20 7 -33 16 -27 18 11 84 -57 84 -86 0 -10 37 -25
83 -32 50 -9 73 -20 57 -30 -17 -11 -18 -19 -2 -29 12 -7 31 -8 42 -1 11 7 20
1 20 -14 1 -21 4 -21 18 1 13 21 28 15 69 -26 29 -29 54 -48 56 -42 1 6 3 22
5 34 4 43 42 36 78 -14 31 -42 31 -49 5 -49 -17 0 -31 -9 -31 -20 0 -12 21
-15 52 -8 71 18 59 -54 -12 -74 -32 -9 -37 -15 -15 -16 37 -2 42 -28 16 -92
-16 -41 7 -110 37 -110 9 0 23 53 30 118 14 120 75 181 116 116 8 -13 16 -15
16 -4 0 34 118 75 173 61 43 -11 50 -7 40 20 -7 18 -13 45 -13 61 0 15 -14 28
-31 28 -17 0 -27 7 -22 16 10 15 -33 57 -115 112 -41 28 -29 72 20 72 17 0 75
-29 129 -65 97 -63 128 -115 69 -115 -41 0 -37 -74 8 -158 46 -86 74 -49 35
45 -21 50 -23 75 -7 91 32 32 80 27 67 -7 -8 -20 -1 -25 20 -17 24 9 29 32 22
97 -13 112 9 148 66 113 24 -15 48 -22 54 -15 7 6 1 11 -13 11 -13 0 -19 9
-11 21 17 28 -25 76 -62 71 -36 -5 -109 -82 -110 -116 -1 -14 -10 -6 -20 19
-10 25 -17 52 -17 59 1 8 -18 21 -41 29 -61 23 -54 84 9 72 41 -8 48 -2 45 37
-3 35 -10 41 -29 24 -19 -15 -26 -14 -26 2 0 12 -18 22 -40 22 -33 0 -40 -13
-40 -75 l0 -75 -86 7 c-60 4 -94 -3 -112 -24 -17 -21 -44 -28 -81 -20 -40 8
-59 2 -68 -22 -10 -27 -4 -31 32 -21 41 11 42 10 10 -16 -19 -16 -35 -52 -35
-81 0 -63 -18 -66 -82 -15 -48 37 -122 82 -258 154 -38 21 -74 44 -80 50 -5 7
-50 33 -100 58 -49 25 -118 67 -152 93 -34 26 -71 47 -82 47 -12 0 -32 14 -46
30 -50 60 -83 36 -76 -55z m1016 -380 c0 -10 9 -12 19 -5 32 19 121 -51 121
-94 0 -26 -10 -37 -28 -30 -15 6 -37 1 -50 -12 -16 -16 -22 -15 -22 4 0 18
-17 23 -54 16 -91 -17 -153 37 -105 93 38 43 119 62 119 28z"/>
<path d="M4270 6000 c7 -12 -14 -20 -52 -20 -79 0 -62 -25 20 -30 42 -2 62 7
69 33 6 24 -1 37 -20 37 -16 0 -24 -9 -17 -20z"/>
<path d="M3542 5965 c-1 -14 -18 -26 -37 -26 -26 -1 -23 -6 12 -20 26 -11 54
-15 63 -9 9 6 20 2 23 -8 24 -64 210 -136 255 -99 43 34 44 38 9 50 -20 7 -45
18 -55 23 -11 6 -13 -4 -6 -22 10 -27 4 -29 -37 -14 -27 11 -49 15 -49 10 0
-4 -24 14 -53 41 -29 27 -64 49 -78 49 -14 0 -30 11 -36 25 -8 20 -10 20 -11
0z"/>
<path d="M1910 5939 c-7 -11 -24 -19 -37 -17 -42 5 -80 -2 -69 -13 21 -20
-104 -133 -134 -122 -34 13 -41 53 -10 53 11 0 20 11 20 24 0 18 -6 18 -22 2
-13 -13 -35 -18 -50 -12 -16 6 -28 3 -28 -7 1 -25 39 -81 40 -57 0 11 9 7 19
-9 25 -40 8 -61 -50 -61 -54 0 -55 -2 -37 -49 16 -41 122 -97 137 -73 6 10 1
22 -13 27 -15 5 -8 23 20 51 24 24 49 65 55 93 7 27 19 48 26 46 22 -5 103 27
103 41 0 8 49 11 110 7 118 -7 152 -48 60 -71 -27 -7 -50 -26 -50 -42 0 -39
32 -39 47 0 7 17 26 30 42 30 17 0 31 9 31 20 0 11 10 20 22 20 12 0 17 -11
12 -25 -27 -75 60 -122 101 -55 21 33 20 40 -5 40 -16 0 -30 -11 -31 -25 0
-14 -10 -9 -21 11 -12 20 -17 48 -12 62 13 33 -12 73 -48 79 -15 2 -38 10 -50
18 -12 8 -51 5 -87 -5 -53 -15 -63 -13 -53 11 12 33 -19 40 -38 8z"/>
<path d="M3215 5931 c-19 -14 -35 -38 -35 -53 1 -23 4 -23 18 -1 12 20 19 16
27 -15 6 -23 34 -50 63 -61 32 -12 47 -30 40 -48 -10 -28 201 -71 226 -46 17
17 -69 98 -90 85 -22 -13 -124 75 -160 138 -16 28 -23 31 -24 10 0 -21 -5 -23
-15 -7 -12 18 -24 17 -50 -2z"/>
<path d="M4770 5900 c-35 -39 -35 -40 7 -40 24 0 43 -9 43 -20 0 -37 31 -20
34 19 5 64 -42 87 -84 41z"/>
<path d="M4700 5792 c0 -15 -15 -33 -32 -40 -26 -10 -28 -18 -8 -42 34 -41
123 -41 107 0 -6 16 -21 24 -34 17 -16 -9 -16 -6 0 13 25 26 15 80 -15 80 -10
0 -18 -13 -18 -28z"/>
<path d="M4460 5772 c0 -44 71 -53 75 -9 2 24 -11 37 -36 37 -22 0 -39 -12
-39 -28z"/>
<path d="M3869 5751 c-11 -11 -16 -41 -13 -66 8 -54 -28 -59 -95 -12 -65 46
-159 51 -150 9 3 -18 7 -49 7 -70 1 -21 7 -33 14 -27 7 7 33 4 59 -5 38 -15
49 -11 59 21 7 21 22 39 33 39 10 0 15 -8 9 -17 -30 -48 -27 -161 3 -172 36
-14 64 20 65 76 0 30 6 33 28 14 21 -17 32 -17 42 -1 8 13 -4 27 -28 34 -43
11 -59 46 -21 46 23 0 79 49 79 69 0 31 -74 82 -91 62z"/>
<path d="M4120 5764 c0 -9 11 -27 24 -40 54 -54 27 -98 -36 -59 -12 8 -27 9
-33 3 -13 -13 5 -88 22 -89 7 0 47 -5 88 -11 47 -7 75 -3 75 10 0 12 -20 22
-45 22 -31 1 -37 6 -19 17 15 10 20 31 11 54 -13 33 -8 32 49 -8 74 -53 144
-71 143 -37 -1 31 -119 170 -119 140 0 -17 -19 -18 -65 -5 -79 23 -95 24 -95
3z"/>
<path d="M1860 5721 c0 -11 -13 -15 -28 -9 -15 6 -34 1 -41 -11 -7 -11 -2 -21
13 -22 15 0 6 -17 -21 -40 -62 -51 -9 -51 57 1 28 22 61 39 74 40 13 0 30 10
38 23 8 14 5 18 -8 10 -11 -8 -27 -5 -34 7 -16 26 -50 26 -50 1z"/>
<path d="M3200 5570 c0 -16 17 -30 37 -30 20 0 36 14 36 30 0 17 -16 30 -36
30 -20 0 -37 -13 -37 -30z"/>
<path d="M5020 5550 c0 -17 -18 -30 -40 -30 -22 0 -40 -10 -40 -21 0 -13 18
-16 45 -8 61 19 97 50 84 71 -18 29 -49 21 -49 -12z"/>
<path d="M1776 5530 c-16 -16 6 -110 26 -110 9 0 12 13 6 28 -6 15 -1 34 11
41 12 8 16 22 10 32 -13 21 -37 25 -53 9z"/>
<path d="M4240 5460 c0 -33 11 -61 25 -63 14 -2 39 -5 55 -7 17 -2 41 -5 54
-7 14 -2 20 -16 14 -31 -7 -19 5 -31 34 -35 25 -4 49 -20 53 -37 7 -27 5 -27
-15 0 -20 27 -22 27 -15 0 5 -16 26 -39 48 -50 22 -11 37 -31 32 -44 -11 -34
53 -149 76 -135 10 6 19 -12 19 -41 0 -95 44 -239 83 -274 21 -19 38 -39 38
-45 -3 -39 3 -47 34 -41 19 4 42 8 50 8 8 1 15 16 15 32 0 17 -7 29 -15 28
-44 -7 -65 6 -65 42 0 22 -9 40 -20 40 -11 0 -20 -11 -20 -23 0 -13 -6 -18
-14 -10 -29 30 64 87 113 69 65 -23 90 7 41 50 -35 30 -40 30 -40 2 0 -47 -49
-22 -56 29 -8 49 -12 51 -65 22 -30 -16 -39 -14 -39 8 0 16 18 33 40 39 22 6
40 21 40 33 0 14 -16 19 -37 12 -31 -10 -36 -3 -29 34 5 25 -5 63 -22 85 -30
39 -31 39 -31 1 -1 -30 -6 -34 -25 -15 -18 18 -15 30 15 53 22 17 28 30 14 30
-14 1 -25 18 -25 40 0 21 -9 44 -20 51 -12 7 -14 23 -6 36 22 34 21 60 0 89
-21 28 -62 35 -45 7 6 -10 -3 -23 -21 -30 -60 -23 -72 -12 -40 38 35 53 -12
78 -59 31 -13 -13 -40 -10 -77 10 -80 41 -92 37 -92 -31z"/>
<path d="M4020 5449 c-27 -69 -28 -67 40 -65 66 2 79 40 31 87 -39 40 -49 37
-71 -22z"/>
<path d="M293 5427 c-7 -8 -13 -36 -13 -62 0 -32 -14 -52 -40 -59 -42 -11 -52
-36 -22 -55 54 -33 -80 -191 -162 -191 -33 0 -38 8 -27 45 34 109 37 146 10
121 -46 -44 -36 -190 14 -198 24 -4 54 6 67 22 38 46 60 36 60 -27 0 -69 55
-123 124 -123 35 0 55 -13 62 -40 6 -22 21 -40 33 -40 16 0 18 15 8 45 -9 25
-15 75 -13 112 3 66 3 66 -33 25 -47 -55 -118 -54 -139 2 -23 64 33 196 83
196 31 0 35 6 18 27 -13 15 -19 30 -16 35 4 4 13 46 20 93 12 78 0 105 -34 72z"/>
<path d="M3545 5415 c13 -38 75 -43 75 -6 0 18 -17 31 -42 31 -24 0 -38 -10
-33 -25z"/>
<path d="M4614 5412 c-16 -47 11 -109 41 -97 24 9 29 2 20 -32 -7 -26 -2 -43
13 -43 13 0 25 23 27 50 3 28 -5 50 -16 50 -11 0 -14 21 -7 49 12 50 -62 71
-78 23z"/>
<path d="M3679 5359 c-18 -35 -16 -40 15 -35 25 4 38 -8 42 -39 6 -39 11 -41
35 -16 41 40 37 94 -6 87 -20 -3 -33 5 -30 19 8 40 -32 29 -56 -16z"/>
<path d="M1 5336 c-1 -29 9 -60 20 -67 38 -23 43 6 11 64 l-30 57 -1 -54z"/>
<path d="M1278 5374 c-2 -8 -4 -22 -5 -32 -5 -33 -33 -50 -34 -20 -1 35 -77
-101 -78 -140 -1 -15 -16 -39 -35 -52 -30 -22 -27 -25 20 -25 46 0 127 55 81
55 -9 0 -8 7 4 15 43 30 94 168 71 191 -12 12 -23 16 -24 8z"/>
<path d="M4753 5313 c-18 -88 -6 -110 43 -81 76 47 280 -108 239 -181 -15 -28
-12 -33 18 -27 46 9 40 74 -14 163 -39 63 -49 84 -71 148 -9 25 -16 27 -22 9
-7 -19 -17 -20 -37 -4 -20 17 -31 13 -48 -19 -30 -55 -49 -52 -73 14 l-20 55
-15 -77z"/>
<path d="M660 5316 c0 -17 -18 -36 -40 -42 -22 -6 -40 -23 -40 -39 0 -24 12
-25 68 -8 68 21 80 53 36 97 -19 19 -24 17 -24 -8z"/>
<path d="M4196 5295 c-64 -62 -165 -264 -150 -301 14 -37 -36 -87 -55 -55 -8
12 -8 29 -2 39 6 10 -5 24 -24 31 -29 11 -30 16 -4 32 37 25 -26 79 -93 79
-62 0 -124 -95 -74 -113 79 -28 226 -136 226 -165 1 -28 3 -28 21 -2 17 26 23
26 47 -5 14 -19 36 -35 49 -35 12 0 17 -12 11 -27 -5 -15 4 -38 21 -52 17 -14
31 -39 31 -54 0 -16 15 -51 32 -78 23 -35 25 -49 8 -49 -20 0 -20 -6 0 -30 13
-16 32 -25 40 -20 9 5 22 -22 29 -60 7 -39 21 -70 32 -70 10 0 19 -20 19 -45
0 -27 7 -36 15 -22 10 15 40 -13 85 -77 87 -124 212 -257 227 -242 7 6 8 -8 3
-32 -4 -24 -1 -39 8 -33 15 9 42 -149 52 -301 2 -34 10 -72 17 -83 7 -12 4
-46 -8 -77 -11 -30 -16 -68 -9 -84 6 -16 2 -39 -9 -52 -12 -15 -11 -34 2 -53
15 -22 23 -23 30 -4 33 81 65 19 59 -112 -9 -184 -73 -303 -163 -303 -24 0
-76 -13 -116 -30 -161 -67 -670 -30 -1103 80 -190 49 -291 60 -486 51 -93 -4
-105 -36 -28 -71 24 -10 41 -32 39 -48 -6 -35 105 -44 119 -10 5 13 32 22 60
19 52 -6 91 -46 74 -75 -6 -9 -3 -17 6 -18 87 -8 130 -7 137 4 13 20 116 -4
154 -38 29 -25 35 -25 35 -2 1 18 6 20 15 7 19 -28 91 -56 75 -29 -28 46 16
61 54 20 25 -26 56 -39 78 -34 21 6 33 3 28 -6 -6 -10 -1 -23 11 -31 12 -7 27
6 33 31 11 43 12 43 58 -11 38 -44 49 -48 59 -23 9 23 25 27 66 14 109 -34
223 -38 223 -7 0 21 9 24 37 9 20 -11 57 -15 81 -8 56 14 144 -31 140 -73 -6
-63 3 -69 33 -25 17 24 45 44 62 44 21 0 28 16 23 53 -3 30 5 57 18 61 31 11
74 -67 46 -84 -11 -7 -21 -46 -22 -86 -2 -78 -33 -198 -36 -141 -2 39 -62 95
-62 58 0 -13 -9 -18 -20 -11 -11 7 -20 -2 -20 -20 0 -18 9 -27 20 -20 11 7 20
-2 20 -20 0 -18 -9 -27 -20 -20 -11 7 -20 4 -20 -7 0 -11 -5 -36 -12 -56 -10
-31 -8 -32 10 -7 19 26 21 26 22 -4 0 -18 -19 -39 -42 -46 -22 -8 -36 -19 -30
-25 19 -19 112 -22 112 -3 0 10 14 18 30 18 17 0 30 14 30 30 0 17 17 30 39
30 26 0 38 -13 36 -40 -2 -22 -11 -40 -19 -40 -9 0 -16 -18 -16 -40 0 -22 -9
-40 -20 -40 -11 0 -20 -12 -20 -27 0 -37 -105 -171 -135 -172 -14 -1 -25 -10
-25 -21 0 -11 20 -16 45 -11 25 4 51 9 58 10 7 0 37 48 67 106 30 58 61 112
69 121 19 20 47 -94 43 -176 -7 -178 -18 -284 -31 -314 -17 -39 3 -82 30 -65
11 6 19 -7 19 -29 0 -22 -9 -45 -20 -52 -66 -41 0 -75 100 -52 6 1 12 22 14
47 2 25 8 70 13 100 8 44 2 55 -29 55 -43 0 -43 -5 -46 285 -2 235 10 256 86
145 37 -56 60 -70 112 -70 75 0 196 55 179 82 -6 10 -1 18 12 18 18 0 18 8 -1
30 -15 18 -16 30 -4 30 25 0 61 100 49 136 -7 19 -18 15 -38 -15 -44 -63 -113
-22 -80 47 12 27 26 46 30 41 57 -57 137 88 127 231 -1 18 41 49 103 77 58 26
133 81 169 125 117 139 103 355 -20 308 -18 -7 -25 8 -24 51 2 68 46 127 62
83 8 -20 16 -21 39 -1 20 16 35 17 44 4 11 -17 60 -20 157 -10 49 6 19 77 -33
79 -28 1 -87 4 -131 7 l-80 6 0 131 c0 137 -31 171 -52 56 l-11 -66 -26 60
c-23 55 -27 57 -41 20 -8 -22 -10 -48 -4 -58 5 -10 1 -12 -11 -5 -32 20 -62
-32 -44 -77 11 -26 17 -30 18 -10 1 27 4 27 21 0 32 -50 26 -90 -10 -60 -25
21 -30 17 -30 -26 0 -29 -9 -57 -20 -64 -29 -18 -25 -75 5 -65 14 5 24 24 22
42 -4 47 35 41 47 -7 6 -22 23 -40 39 -40 20 0 24 -15 15 -52 -9 -35 -4 -58
14 -69 32 -20 45 -119 16 -119 -11 0 -18 -17 -14 -38 6 -40 -88 -162 -126
-162 -12 0 -15 17 -8 40 17 52 -43 121 -62 72 -14 -37 -48 -23 -48 20 0 18 10
24 23 16 15 -9 18 -5 8 11 -9 13 -32 20 -53 15 -34 -9 -47 8 -40 51 1 8 -7 15
-18 15 -11 0 -20 -14 -20 -31 0 -66 -125 -161 -147 -111 -13 28 -34 41 -61 38
-56 -8 -67 56 -13 74 33 10 37 20 20 51 -26 50 -39 217 -17 230 31 20 11 109
-24 109 -29 0 -31 11 -15 81 10 45 13 90 6 100 -6 11 4 19 22 19 23 0 29 -10
21 -33 -10 -26 -7 -28 14 -10 15 12 35 16 44 8 9 -8 10 -4 2 10 -8 14 -5 25 7
25 35 0 23 112 -16 147 -20 18 -42 27 -50 20 -7 -8 -13 6 -13 30 0 29 -12 43
-38 43 -27 0 -43 19 -52 58 -7 32 -28 62 -47 67 -31 8 -93 152 -74 171 5 4 29
-11 53 -34 58 -54 98 -54 98 0 0 24 10 38 25 33 14 -5 24 -37 22 -70 -2 -43 8
-64 32 -70 33 -9 45 47 17 76 -6 6 -2 37 10 69 24 64 -6 160 -51 160 -19 -1
-18 -5 2 -18 18 -11 20 -21 6 -30 -12 -7 -16 -26 -10 -43 17 -43 -19 -35 -60
13 -28 33 -41 36 -64 17 -23 -19 -29 -17 -29 9 0 17 11 32 25 32 14 0 3 12
-25 26 -27 14 -50 38 -50 55 0 16 -27 38 -60 49 -44 15 -60 32 -58 64 1 25 -4
41 -13 36 -8 -6 -20 4 -27 21 -6 18 -3 26 8 19 11 -7 20 -3 20 9 0 11 23 21
50 21 50 0 70 45 30 70 -12 7 -15 22 -9 32 8 12 -10 18 -43 14 -50 -5 -55 0
-57 62 -1 57 -12 74 -75 106 -41 22 -80 56 -86 78 -7 21 -21 38 -30 38 -33 0
-44 -42 -19 -71 20 -25 19 -28 -8 -17 -18 7 -39 33 -45 58 -9 37 -23 45 -75
41 -80 -7 -139 40 -113 90 14 25 11 38 -10 46 -35 14 -17 73 22 73 34 0 36 24
4 56 -19 19 -12 24 29 24 122 0 178 51 115 106 -51 43 -49 43 -104 -11z m261
-632 c24 -21 43 -48 43 -60 0 -13 9 -23 20 -23 11 0 20 -13 20 -30 0 -16 11
-30 25 -30 18 -1 17 -5 -3 -18 -17 -11 -21 -28 -10 -45 9 -15 19 -45 23 -67 3
-22 21 -53 40 -70 19 -16 38 -48 41 -70 4 -22 11 -67 17 -100 l10 -60 -47 53
c-99 114 -167 230 -221 377 -10 28 -31 74 -45 104 -20 40 -21 56 -3 63 39 16
45 14 90 -24z m426 -1770 c-13 -15 -18 -31 -12 -37 10 -10 16 -64 28 -226 2
-33 9 -49 14 -35 6 14 19 25 30 25 11 0 14 -9 6 -21 -19 -32 28 -76 70 -65 20
5 42 27 47 48 6 21 26 38 44 38 25 0 30 -10 20 -35 -7 -19 -28 -92 -45 -161
-32 -131 -124 -259 -166 -234 -14 9 -10 22 13 39 26 19 28 29 9 41 -29 17 -60
-22 -61 -77 -1 -134 -45 13 -53 177 -14 291 -14 296 3 345 12 37 9 43 -18 33
-28 -11 -30 -5 -13 38 27 73 68 134 88 134 10 0 8 -12 -4 -27z m405 -133 c12
0 9 -9 -8 -20 -16 -11 -21 -20 -9 -20 12 0 32 11 45 24 13 13 30 16 39 8 18
-18 -67 -92 -106 -92 -14 0 -29 -10 -33 -21 -12 -36 -76 3 -88 53 -7 27 -2 61
10 76 13 15 22 35 20 45 -7 43 6 42 55 -4 29 -27 63 -49 75 -49z"/>
<path d="M4900 2451 c0 -58 7 -71 41 -71 23 0 36 9 29 20 -7 11 -3 20 9 20 11
0 21 15 21 34 0 26 -5 29 -24 10 -33 -33 -63 -30 -49 5 6 17 3 35 -8 42 -11 6
-19 -20 -19 -60z"/>
<path d="M4025 5240 c-55 -44 -56 -53 -7 -65 29 -8 42 3 51 40 17 65 10 69
-44 25z"/>
<path d="M3679 5153 c-33 -48 -57 -64 -89 -58 -38 7 -42 1 -37 -63 4 -54 -2
-72 -26 -72 -20 0 -27 11 -20 30 23 59 -21 29 -58 -40 -41 -76 -95 -91 -127
-35 -20 33 -21 33 -21 0 -1 -27 -18 -35 -72 -35 -43 0 -66 -8 -59 -20 7 -12
21 -15 31 -9 11 6 19 1 19 -12 0 -12 -18 -27 -40 -33 -22 -6 -40 -19 -40 -30
0 -24 -85 -13 -106 14 -9 11 -13 2 -9 -20 4 -22 18 -38 31 -35 47 10 23 -29
-56 -93 -58 -46 -80 -55 -80 -33 0 17 -9 31 -20 31 -11 0 -20 -9 -20 -20 0
-11 -40 -31 -90 -44 -89 -24 -90 -25 -90 -110 0 -47 8 -86 17 -86 37 0 81 73
72 121 l-10 49 24 -46 c16 -30 34 -41 55 -33 18 8 48 18 67 24 19 5 35 18 35
27 0 10 13 18 29 18 15 0 34 18 41 40 7 22 25 40 40 40 15 0 33 16 39 35 11
34 190 152 237 157 13 1 31 4 39 7 8 4 22 7 30 9 8 2 36 15 61 29 79 44 116
15 110 -85 -3 -62 4 -91 24 -99 15 -6 47 -47 70 -92 22 -45 53 -81 68 -81 15
0 33 -13 39 -29 16 -42 130 -31 145 14 6 19 28 35 49 35 80 0 30 50 -71 72
-69 14 -128 51 -140 86 -7 23 -22 39 -34 37 -12 -3 -26 26 -31 65 -9 75 -39
126 -65 110 -30 -19 5 80 44 122 21 24 36 51 34 60 -3 10 6 43 19 74 41 101 9
105 -58 7z"/>
<path d="M433 5123 c-42 -47 -42 -57 7 -83 22 -12 39 -15 38 -6 -7 42 5 66 32
66 40 0 38 32 -2 48 -41 16 -37 17 -75 -25z"/>
<path d="M896 5118 c-29 -22 -65 -37 -79 -34 -15 4 -25 -5 -22 -19 4 -22 -33
-35 -80 -27 -8 1 -15 -8 -15 -19 0 -12 -8 -16 -18 -10 -62 38 -134 -140 -101
-249 15 -51 29 -11 20 57 -2 15 12 38 31 52 21 15 29 38 22 58 -8 21 -3 33 15
33 15 0 32 -11 38 -25 5 -14 11 -5 11 20 1 30 14 45 40 45 20 0 48 14 62 30
14 17 42 30 62 30 21 0 38 11 38 25 1 19 5 18 18 -2 12 -20 19 -16 27 15 16
59 -7 65 -69 20z"/>
<path d="M4871 5074 l-37 -68 68 -71 c37 -39 78 -87 91 -108 21 -34 24 -33 45
19 35 89 26 130 -33 158 -30 14 -58 44 -62 66 -13 71 -35 72 -72 4z"/>
<path d="M4315 5095 c11 -14 17 -42 14 -62 -3 -21 2 -57 11 -80 13 -33 18 -18
19 62 1 84 -5 105 -31 105 -24 0 -27 -7 -13 -25z"/>
<path d="M5320 5072 c0 -33 -54 -58 -87 -39 -13 8 -6 -5 15 -29 20 -24 45 -38
55 -32 9 6 17 -8 17 -31 0 -51 11 -51 62 -3 40 37 22 79 -22 52 -11 -7 -20 -3
-20 9 0 11 8 21 18 21 10 0 14 18 8 40 -12 45 -46 54 -46 12z"/>
<path d="M5465 4903 c-15 -9 -11 -29 16 -63 l38 -50 1 54 c0 59 -20 81 -55 59z"/>
<path d="M5070 4851 c-6 -17 -14 -44 -19 -60 -5 -16 8 -34 30 -41 46 -15 52
-50 9 -50 -16 0 -30 -7 -30 -17 0 -9 20 -15 45 -13 58 4 106 95 77 145 -20 34
-34 -2 -24 -61 2 -10 -6 -11 -18 -4 -11 7 -20 34 -20 60 0 56 -36 86 -50 41z"/>
<path d="M482 4815 c-17 -48 -45 -223 -29 -180 6 14 22 25 37 25 14 0 25 20
25 45 -1 25 5 70 14 100 19 68 -22 77 -47 10z"/>
<path d="M88 4791 c-17 -44 6 -66 63 -60 45 5 51 -1 45 -48 -4 -33 8 -66 32
-88 55 -50 62 -45 65 47 2 70 -3 80 -36 72 -22 -6 -37 0 -37 16 0 53 -115 107
-132 61z"/>
<path d="M5444 4755 c-51 -25 -48 -94 7 -149 25 -25 29 -20 29 43 0 46 11 76
30 84 36 14 40 48 5 46 -14 -1 -46 -12 -71 -24z"/>
<path d="M798 4695 c-2 -25 -1 -53 1 -63 2 -10 -8 -25 -22 -34 -14 -9 -20 -21
-13 -28 20 -21 96 37 96 73 0 88 -58 136 -62 52z"/>
<path d="M4883 4713 c-33 -39 -17 -93 26 -93 17 0 31 -9 31 -20 0 -11 -13 -20
-30 -20 -16 0 -30 -10 -30 -21 0 -12 17 -16 38 -10 21 7 44 3 51 -8 8 -12 -3
-21 -23 -22 -29 0 -24 -10 23 -49 32 -26 66 -43 75 -38 9 6 26 4 38 -3 16 -10
14 -19 -5 -31 -29 -19 -26 -20 85 -28 63 -5 102 -27 88 -49 -12 -20 111 -67
128 -49 7 6 -22 42 -63 80 -78 72 -70 88 21 39 98 -53 226 -216 194 -247 -7
-8 -31 9 -53 36 -33 40 -38 42 -27 10 65 -183 61 -297 -19 -495 -60 -150 -64
-256 -5 -135 19 39 54 79 78 90 75 34 117 132 117 273 -1 169 -7 200 -47 257
-19 27 -34 59 -34 72 0 20 -47 81 -134 173 -18 19 -58 46 -89 60 -50 22 -67
50 -59 100 1 8 -5 13 -13 11 -8 -3 -35 7 -60 20 -31 18 -45 19 -45 3 0 -14
-21 -17 -60 -9 -37 8 -60 5 -60 -8 0 -11 -14 -15 -31 -9 -19 7 -26 26 -18 49
8 26 2 38 -18 38 -17 0 -33 15 -37 33 -6 31 -8 31 -33 0z m697 -741 c0 -63
-48 -232 -66 -232 -10 0 -13 20 -5 45 7 25 19 83 25 130 10 78 46 122 46 57z"/>
<path d="M58 4517 c-19 -36 -17 -48 13 -70 44 -32 77 -35 58 -6 -7 11 -2 33
11 49 13 16 18 38 11 49 -22 35 -68 24 -93 -22z"/>
<path d="M5580 4473 c0 -31 -5 -34 -30 -13 -24 20 -30 20 -30 -3 1 -32 39 -97
40 -66 0 11 18 22 40 24 23 1 40 -10 40 -26 0 -16 9 -29 20 -29 31 0 23 25
-31 90 -40 49 -49 53 -49 23z"/>
<path d="M5720 4456 c1 -35 39 -95 40 -61 0 14 10 25 21 25 13 0 16 -17 9 -40
-7 -23 -4 -40 9 -40 11 0 21 18 21 40 0 22 11 40 25 41 31 0 -15 28 -80 48
-31 9 -45 5 -45 -13z"/>
<path d="M560 4437 c0 -12 -16 -35 -35 -51 -25 -21 -28 -31 -10 -39 14 -6 25
-28 25 -49 0 -21 9 -38 20 -38 11 0 20 -14 20 -31 0 -17 -9 -26 -20 -19 -11 7
-20 3 -20 -9 0 -11 9 -21 20 -21 11 0 20 -13 20 -29 0 -16 9 -34 20 -41 11 -7
14 1 8 19 -7 17 -2 31 10 31 12 0 22 10 22 21 0 12 -9 16 -21 9 -13 -8 -17 6
-11 38 14 76 27 89 77 78 33 -7 38 -4 18 10 -16 11 -24 32 -19 47 5 14 -4 40
-20 56 -37 37 -104 48 -104 18z"/>
<path d="M2600 4420 c-18 -12 -21 -20 -6 -20 13 0 20 -18 16 -40 -9 -44 5 -49
50 -19 26 17 25 22 -5 41 -20 11 -31 29 -24 39 14 24 7 24 -31 -1z"/>
<path d="M2461 4308 c-38 -37 -62 -73 -55 -81 8 -8 28 3 44 24 16 22 29 28 29
14 1 -14 -17 -43 -39 -65 -22 -22 -40 -32 -40 -22 0 29 -76 1 -89 -32 -8 -22
-2 -27 20 -18 18 6 26 3 19 -8 -7 -11 -29 -20 -49 -20 -41 0 -69 -73 -34 -88
13 -5 3 -15 -22 -23 -47 -14 -58 -39 -26 -58 10 -7 26 0 35 14 9 14 43 39 76
55 141 70 249 198 247 293 -2 103 -22 106 -116 15z"/>
<path d="M5880 4361 c0 -10 11 -22 25 -27 14 -5 0 -16 -30 -24 -49 -13 -60
-50 -15 -50 55 0 97 89 50 107 -16 7 -30 4 -30 -6z"/>
<path d="M0 4333 c0 -18 10 -33 21 -33 13 0 16 -18 7 -45 -13 -41 -11 -42 24
-16 21 17 40 31 43 32 3 1 -18 23 -45 49 -41 39 -50 41 -50 13z"/>
<path d="M175 4314 c-101 -40 -72 -194 37 -194 15 0 28 14 28 31 0 17 -9 26
-21 18 -61 -37 -82 12 -31 73 42 50 69 105 47 96 -3 -1 -30 -12 -60 -24z"/>
<path d="M5151 4241 c8 -38 27 -82 43 -98 16 -16 25 -50 21 -76 -5 -26 -2 -47
8 -47 9 0 17 -10 17 -23 0 -30 155 -182 165 -162 4 8 6 26 4 40 -2 14 -6 45
-8 70 -4 43 -5 43 -21 5 -17 -39 -17 -38 -19 4 0 24 -9 49 -19 55 -11 6 -25
38 -32 71 -7 33 -21 60 -32 60 -10 0 -18 18 -18 39 0 22 -20 50 -45 63 -25 13
-52 34 -61 46 -9 12 -10 -9 -3 -47z"/>
<path d="M290 4240 c-19 -21 -30 -52 -23 -69 11 -28 -28 -63 -136 -122 -21
-12 -43 -35 -48 -50 -8 -25 -5 -25 23 -2 19 15 48 22 66 15 20 -8 46 6 71 38
22 27 59 50 83 51 l44 1 -46 32 -45 32 42 45 c23 25 34 50 23 56 -10 7 -34 -5
-54 -27z"/>
<path d="M5905 4267 c-35 -14 -31 -80 4 -94 22 -8 28 -36 23 -102 -4 -58 2
-91 16 -91 13 0 12 -7 -4 -17 -17 -11 -22 -35 -13 -71 10 -40 7 -52 -14 -48
-18 4 -28 -17 -31 -64 -2 -38 -8 -97 -14 -130 -6 -33 -6 -44 0 -25 6 19 20 35
32 35 11 0 15 -13 8 -30 -32 -80 -37 -102 -13 -65 39 60 64 38 30 -27 -30 -59
-30 -64 9 -101 47 -43 53 -70 18 -82 -13 -4 -16 -18 -7 -33 30 -49 50 22 51
175 0 119 -5 145 -28 136 -23 -8 -25 1 -12 47 9 31 11 62 5 68 -6 7 -1 12 12
12 12 0 23 8 23 18 0 10 -19 13 -43 7 -30 -8 -39 -4 -29 12 8 13 27 23 43 23
38 0 42 232 4 247 -20 8 -20 10 0 11 39 3 33 175 -7 190 -17 7 -33 11 -35 10
-1 0 -14 -6 -28 -11z"/>
<path d="M5732 4197 c10 -16 4 -20 -17 -12 -48 19 -58 -7 -25 -58 17 -26 25
-47 17 -47 -7 0 4 -20 25 -43 21 -24 27 -37 13 -29 -15 9 -25 3 -25 -15 0 -19
13 -26 39 -19 42 11 69 59 42 75 -9 6 -13 28 -7 49 11 43 -25 122 -56 122 -11
0 -14 -11 -6 -23z"/>
<path d="M4193 4066 c-8 -7 -34 -17 -59 -20 -24 -4 -46 -14 -49 -22 -3 -8 -73
-14 -155 -13 -83 0 -150 -7 -150 -15 0 -9 -16 -16 -36 -16 -78 0 -128 -141
-54 -154 11 -1 37 -10 57 -17 33 -13 34 -11 11 27 -34 54 -4 86 33 36 15 -21
31 -47 34 -57 4 -13 43 -11 106 5 54 13 124 26 154 27 36 2 60 17 68 43 27 86
170 112 212 39 14 -23 175 -38 175 -16 0 22 -194 127 -234 127 -25 0 -46 9
-46 20 0 23 -46 27 -67 6z"/>
<path d="M1994 4001 c-5 -22 3 -50 18 -63 23 -19 28 -13 28 28 0 64 -32 88
-46 35z"/>
<path d="M3540 4022 c0 -10 10 -22 23 -26 14 -5 10 -20 -12 -42 -18 -18 -28
-42 -22 -53 7 -11 -19 -6 -58 10 -89 37 -98 36 -83 -4 7 -18 0 -47 -16 -65
-25 -27 -25 -37 -1 -70 26 -36 29 -36 41 -3 8 19 19 25 26 15 7 -11 53 -16
105 -10 93 11 112 46 48 91 -15 11 -15 19 0 30 48 33 47 82 -2 114 -27 18 -49
23 -49 13z"/>
<path d="M5182 3925 c-1 -14 -14 -25 -30 -25 -49 0 -83 -59 -55 -97 13 -18 37
-63 54 -99 17 -36 50 -74 75 -84 24 -9 32 -18 17 -19 -19 -1 -23 -16 -15 -51
11 -44 6 -50 -39 -50 -34 0 -46 -8 -37 -23 8 -13 6 -18 -4 -12 -10 6 -41 -1
-68 -15 -53 -29 -54 -27 50 -59 34 -11 41 -102 9 -122 -12 -7 -16 -38 -9 -71
10 -43 5 -61 -18 -70 -32 -12 -46 -50 -17 -46 39 7 45 -5 18 -32 -41 -41 -66
-38 -79 10 -6 22 -20 40 -32 40 -27 0 -29 -33 -4 -49 10 -6 14 -27 10 -46 -12
-49 26 -104 48 -70 10 14 37 30 63 35 89 17 221 231 190 307 -12 29 -15 28
-30 -7 -22 -52 0 123 24 186 9 26 17 78 17 115 0 42 10 69 25 70 15 0 11 11
-10 27 -19 14 -35 35 -35 46 0 11 -22 52 -48 91 -27 39 -53 88 -58 108 -5 20
-10 26 -12 12z"/>
<path d="M2103 3871 c32 -34 51 -41 61 -25 11 16 15 13 16 -9 0 -18 -13 -38
-30 -44 -16 -7 -30 -2 -30 11 0 12 -26 -3 -58 -35 -55 -55 -56 -60 -25 -103
41 -56 57 -57 74 -4 7 23 34 73 60 111 25 37 49 77 53 89 4 11 26 21 50 23 24
2 39 10 34 18 -5 9 -29 8 -54 -1 -50 -19 -126 -16 -147 4 -40 40 -44 7 -4 -35z"/>
<path d="M5720 3865 c1 -87 24 -205 40 -205 25 0 43 66 22 79 -10 6 -18 25
-17 41 4 78 -7 140 -25 140 -11 0 -20 -25 -20 -55z"/>
<path d="M4 3861 c8 -38 109 -48 123 -12 7 19 -12 29 -59 35 -54 6 -68 1 -64
-23z"/>
<path d="M558 3853 c18 -22 12 -26 -33 -17 l-55 10 39 -44 c29 -33 42 -37 56
-17 14 18 16 15 8 -9 -6 -19 -3 -40 8 -46 10 -7 16 22 14 69 -3 53 -14 81 -32
81 -21 0 -23 -6 -5 -27z"/>
<path d="M850 3840 c10 -31 7 -41 -8 -31 -13 7 -22 0 -22 -19 0 -26 8 -27 41
-9 45 23 46 80 2 95 -20 6 -23 -3 -13 -36z"/>
<path d="M2594 3853 c-15 -39 55 -102 90 -80 14 9 34 17 44 17 10 0 22 11 27
25 10 31 -27 33 -46 3 -8 -13 -29 -6 -59 22 -37 34 -47 37 -56 13z"/>
<path d="M453 3719 c-20 -29 -33 -35 -43 -18 -11 17 -19 17 -31 -3 -13 -21
-22 -21 -47 1 -27 21 -32 21 -32 -2 0 -45 110 -78 170 -50 27 13 50 30 50 38
0 37 36 10 45 -34 5 -28 2 -45 -8 -39 -9 6 -17 -3 -17 -20 0 -44 54 -18 67 32
22 84 -106 163 -154 95z"/>
<path d="M2670 3741 c-7 -12 18 -19 60 -17 93 3 114 36 22 36 -38 0 -75 -9
-82 -19z"/>
<path d="M3755 3644 c-19 -4 -35 -15 -35 -25 0 -10 -36 -37 -80 -59 -44 -22
-80 -50 -80 -62 0 -11 -9 -15 -20 -8 -11 7 -20 3 -20 -8 0 -11 8 -25 18 -31
21 -13 19 -49 -5 -86 -19 -31 56 -63 132 -55 38 5 57 -4 66 -32 14 -44 80 -51
95 -11 15 40 101 51 171 21 51 -21 59 -21 50 3 -6 16 -1 29 11 29 12 0 22 -7
22 -17 0 -9 14 -16 30 -16 17 0 30 7 30 16 0 10 12 17 26 17 15 0 47 19 72 42
24 23 50 37 56 31 6 -7 27 -3 47 7 23 13 57 12 98 -3 76 -26 106 -5 51 36 -22
16 -37 45 -34 65 4 25 -23 50 -90 84 -53 26 -100 53 -106 59 -11 12 -449 15
-505 3z m522 -84 c7 0 25 -19 39 -41 23 -37 22 -39 -10 -22 -68 38 -122 88
-79 75 20 -7 42 -12 50 -12z m-423 -20 c13 0 22 -17 21 -39 -2 -21 -12 -37
-23 -35 -11 2 -23 -12 -27 -31 -5 -22 4 -35 24 -35 17 0 31 -10 31 -22 0 -12
-12 -17 -28 -12 -19 8 -25 0 -18 -24 11 -44 -47 -97 -76 -68 -12 12 -23 34
-25 50 -9 59 -94 147 -113 116 -10 -16 -23 -24 -29 -18 -6 7 7 28 29 48 23 20
40 26 40 13 0 -33 33 -28 79 11 30 26 34 39 16 52 -16 11 -7 13 25 6 28 -6 61
-12 74 -12z m275 -8 c104 -54 122 -105 57 -161 -70 -62 -114 -66 -96 -10 7 22
2 54 -11 70 -14 17 -19 36 -12 43 7 7 -2 29 -20 49 -42 47 0 52 82 9z"/>
<path d="M2855 3566 c-63 -10 -61 -7 -35 -76 11 -29 29 -47 41 -39 14 8 10 26
-13 51 -19 21 -24 38 -12 38 12 0 27 -9 35 -21 8 -14 23 -12 45 5 20 17 27 17
18 2 -8 -13 -6 -29 6 -36 11 -7 20 -30 20 -51 0 -22 8 -39 19 -39 41 0 121 40
121 61 0 12 -8 16 -18 10 -10 -6 -23 0 -29 14 -8 20 -10 20 -11 0 -3 -36 -42
-31 -42 6 0 17 -8 26 -18 20 -9 -6 -22 7 -28 29 -6 22 -18 39 -27 37 -9 -2
-42 -7 -72 -11z"/>
<path d="M2300 3542 c0 -20 -131 -51 -185 -44 -19 3 -49 -10 -67 -27 -17 -17
-39 -26 -49 -20 -10 6 -13 -3 -7 -20 7 -17 2 -31 -11 -31 -13 0 -18 -8 -12
-18 6 -10 -3 -23 -21 -30 -44 -17 -52 -15 -38 8 7 11 7 20 1 20 -22 0 -53
-106 -35 -124 47 -47 142 -35 120 16 -19 40 -16 56 20 93 63 68 158 100 174
58 7 -18 3 -35 -9 -39 -33 -11 -25 -95 14 -139 45 -51 204 -41 206 12 1 18 6
54 11 80 7 39 2 46 -31 38 -28 -8 -40 1 -45 32 -5 34 -18 42 -61 37 -30 -3
-55 2 -55 11 0 16 38 24 135 27 25 1 40 10 35 19 -19 30 19 35 46 7 16 -18 18
-28 4 -28 -12 0 -17 -9 -10 -20 8 -13 25 -13 47 -2 19 11 48 17 64 15 49 -5
47 36 -3 62 -55 28 -238 34 -238 7z"/>
<path d="M3440 3504 c0 -31 57 -94 71 -79 8 8 4 26 -8 41 -12 15 -17 34 -9 41
7 7 -2 13 -21 13 -18 0 -33 -7 -33 -16z"/>
<path d="M495 3468 c-27 -27 11 -103 47 -93 21 5 52 -1 68 -15 33 -28 43 9 14
54 -17 27 -115 68 -129 54z"/>
<path d="M143 3433 c-24 -28 -24 -33 0 -34 18 0 14 -11 -13 -35 -39 -33 -90
-127 -90 -166 0 -11 25 3 55 31 30 28 70 51 90 51 19 0 33 11 30 25 -3 15 12
23 40 19 34 -5 45 3 45 35 0 32 -13 41 -59 41 -38 0 -60 11 -65 33 -6 31 -8
31 -33 0z"/>
<path d="M348 3411 c-13 -13 -21 -46 -18 -72 3 -27 6 -60 7 -73 2 -14 17 -20
33 -13 17 6 30 1 30 -12 0 -14 15 -19 39 -11 27 8 45 -1 60 -29 22 -40 9 -52
-44 -44 -16 3 -239 -53 -245 -62 -29 -33 -66 -135 -51 -135 12 0 21 10 21 22
0 14 20 17 55 9 30 -8 48 -8 40 1 -25 25 27 68 83 68 30 0 64 10 77 23 29 29
227 38 260 12 14 -11 20 -40 13 -67 -7 -27 -3 -48 8 -48 42 0 50 -157 11 -218
l-37 -58 -94 46 c-52 25 -98 41 -103 36 -5 -5 -26 0 -46 10 -73 38 -138 62
-200 74 -35 7 -69 26 -75 42 -17 45 -172 30 -172 -17 0 -19 10 -35 22 -35 12
0 50 -12 85 -28 35 -15 90 -37 123 -48 33 -11 78 -27 100 -35 22 -8 49 -18 60
-21 233 -74 299 -112 281 -161 -5 -13 9 -39 31 -59 22 -19 57 -75 78 -124 23
-52 56 -92 81 -98 25 -7 45 -33 53 -69 13 -67 34 -86 106 -94 37 -5 20 -60
-30 -99 -56 -45 -66 -126 -20 -164 16 -13 26 -31 21 -39 -5 -8 31 -57 80 -109
49 -52 89 -107 89 -122 0 -39 78 -89 116 -75 20 8 26 4 16 -12 -8 -12 -5 -23
7 -23 11 0 34 -29 50 -65 51 -115 72 -128 197 -129 134 -1 177 -31 289 -203
108 -168 462 -505 587 -559 43 -18 78 -39 78 -47 0 -21 139 -97 178 -97 20 0
52 -18 72 -40 20 -22 46 -39 58 -37 12 2 37 -3 56 -12 18 -8 50 -4 70 9 31 19
29 21 -19 14 -41 -6 -55 0 -55 25 0 18 -11 44 -24 57 -27 27 -84 33 -68 7 6
-10 -10 -13 -36 -8 -26 5 -59 30 -73 56 -21 40 -31 44 -67 25 -39 -21 -40 -20
-12 14 28 34 27 36 -17 25 -31 -8 -43 -4 -37 12 5 13 -14 40 -42 62 -28 21
-44 27 -36 14 9 -15 -1 -23 -28 -23 -23 0 -37 8 -31 19 6 10 3 24 -8 30 -10 7
-13 28 -6 47 11 30 8 30 -21 7 -18 -15 -28 -38 -21 -50 8 -13 6 -16 -4 -7 -9
8 -19 30 -22 49 -3 19 -14 37 -26 41 -12 4 -21 15 -21 25 0 10 14 13 30 6 17
-6 30 -1 30 12 0 13 -24 20 -55 17 -45 -5 -54 1 -51 34 3 22 0 29 -6 16 -19
-41 -63 -7 -53 42 8 44 -63 88 -120 75 -23 -5 -18 33 6 41 11 3 3 26 -19 50
-22 23 -46 65 -53 93 -7 28 -25 62 -41 74 -15 13 -22 33 -14 45 8 13 0 16 -21
8 -24 -9 -33 -2 -33 25 0 21 -9 44 -20 51 -12 7 -15 21 -9 31 10 18 -15 26
-43 14 -6 -3 -25 20 -41 51 -16 30 -37 50 -46 45 -9 -6 -22 10 -28 36 -7 25
-35 71 -62 100 -28 30 -49 61 -46 69 2 8 -12 38 -32 68 -35 52 -113 24 -113
-41 0 -72 -135 -148 -175 -98 -30 38 -22 95 13 95 18 0 62 18 98 41 37 22 77
34 90 27 18 -11 19 -8 1 12 -13 13 -22 35 -19 47 3 13 2 17 -2 10 -5 -8 -35
-6 -67 3 -37 11 -59 10 -59 -3 0 -10 -9 -14 -20 -7 -11 7 -39 -6 -64 -29 -48
-45 -68 -50 -85 -23 -20 33 12 82 54 82 33 0 36 5 15 30 -21 25 -18 30 13 31
36 0 35 1 -2 30 -21 16 -28 29 -15 29 13 0 24 10 24 21 0 12 -11 15 -25 7 -20
-11 -20 -8 0 13 25 27 114 -3 150 -51 9 -12 15 -10 15 5 0 14 -25 52 -55 85
-98 107 -105 117 -93 147 6 16 1 35 -11 42 -12 8 -16 23 -10 33 7 11 0 34 -14
52 -15 18 -41 78 -58 134 -34 111 -21 106 -202 79 -82 -12 -155 40 -159 113
-2 22 -5 51 -7 65 -6 41 31 75 81 75 27 0 47 -7 46 -15 -8 -50 3 -72 25 -50
18 18 17 31 -2 54 -16 19 -21 55 -14 90 6 33 3 65 -8 72 -12 7 -15 32 -8 56
13 42 12 42 -16 5 -43 -56 -84 -56 -88 1 -2 28 8 47 25 47 15 0 28 14 28 30 0
17 0 37 0 45 0 15 -8 17 -69 23 -19 1 -25 18 -20 50 5 28 -4 58 -24 75 -30 24
-32 22 -20 -26 9 -37 4 -56 -16 -64 -35 -13 -191 46 -191 72 0 11 -14 14 -31
7 -17 -6 -26 -4 -20 6 6 10 -4 23 -21 30 -20 8 -29 27 -23 50 14 52 -9 84 -37
53z m1100 -1803 c7 -17 8 -38 3 -47 -17 -27 28 -152 71 -198 52 -57 40 -72
-31 -40 -89 41 -130 154 -98 272 14 53 38 58 55 13z m66 5 c-16 -43 58 -188
104 -202 45 -15 59 -50 17 -43 -89 16 -113 38 -131 118 -11 46 -26 100 -34
119 -10 25 -5 35 20 35 20 0 30 -11 24 -27z"/>
<path d="M2540 3380 c16 -31 17 -50 1 -69 -17 -21 0 -26 89 -26 80 0 110 7
110 28 0 15 -16 27 -35 27 -30 1 -31 3 -5 20 30 20 -7 30 -75 22 -13 -2 -43 6
-66 19 -39 20 -40 19 -19 -21z"/>
<path d="M2860 3360 c0 -23 13 -40 31 -40 42 0 57 -49 29 -100 -26 -49 -8 -84
21 -39 16 25 18 24 19 -4 0 -19 -11 -38 -25 -44 -18 -7 -19 -10 -1 -11 13 -1
48 21 78 48 33 30 43 50 26 50 -18 0 -30 27 -33 74 -6 80 -30 105 -100 106
-32 0 -45 -12 -45 -40z"/>
<path d="M1495 3345 c-21 -44 -3 -175 25 -175 17 0 29 16 27 35 -1 19 4 35 12
35 8 0 12 20 9 45 -2 25 -5 52 -6 60 -1 8 -15 15 -31 15 -16 0 -32 -7 -36 -15z"/>
<path d="M3553 3235 c-39 -29 84 -135 157 -135 16 0 30 -9 30 -19 0 -11 12
-15 27 -9 15 6 33 -4 40 -21 10 -27 19 -28 53 -7 51 33 51 56 -1 56 -23 0 -36
8 -30 18 23 38 -114 150 -140 114 -29 -40 -48 -40 -77 -1 -19 26 -28 26 -59 4z"/>
<path d="M4460 3181 c0 -13 -8 -18 -18 -12 -30 18 -39 -38 -13 -75 27 -37 62
-48 40 -13 -7 12 2 33 21 46 31 23 31 27 2 52 -23 19 -32 19 -32 2z"/>
<path d="M5893 3187 c-7 -8 -13 -36 -13 -64 0 -27 7 -43 15 -35 14 15 17 23
23 74 1 17 10 16 30 -1 28 -23 63 1 38 26 -17 17 -76 17 -93 0z"/>
<path d="M5720 3153 c0 -27 81 -113 107 -113 8 0 5 17 -6 39 -16 29 -13 46 10
70 18 17 24 31 14 31 -9 0 -27 -10 -39 -22 -15 -15 -25 -15 -35 0 -19 31 -51
27 -51 -5z"/>
<path d="M4285 3079 c-61 -70 -63 -75 -25 -85 42 -11 80 34 80 93 0 16 11 33
24 38 13 4 16 12 5 18 -10 6 -48 -23 -84 -64z"/>
<path d="M1331 3082 c-9 -28 -25 -41 -43 -34 -35 13 -37 -36 -3 -62 14 -10 52
-13 85 -7 49 10 53 15 24 26 -20 8 -31 24 -24 35 7 11 4 35 -7 53 -16 30 -20
28 -32 -11z"/>
<path d="M5753 2985 c-5 -9 13 -26 41 -40 29 -13 46 -18 39 -11 -7 6 3 24 22
38 31 24 28 27 -29 27 -35 1 -68 -6 -73 -14z"/>
<path d="M1398 2908 c-12 -15 -31 -23 -40 -17 -10 6 -18 -7 -18 -28 0 -22 17
-46 38 -52 39 -13 73 -98 52 -131 -16 -26 10 -120 33 -120 11 0 15 7 10 16 -6
9 -2 29 8 45 13 21 18 7 19 -46 0 -41 10 -75 22 -75 14 0 17 19 9 52 -7 29 -3
64 11 80 22 27 4 38 -47 30 -8 -1 -15 23 -15 53 1 43 5 48 20 25 16 -24 19
-21 20 15 0 31 -17 52 -53 66 -29 11 -48 25 -41 31 6 6 28 2 49 -9 50 -27 95
9 59 46 -39 39 -111 49 -136 19z"/>
<path d="M1612 2889 c-12 -32 5 -49 51 -49 21 0 37 -9 37 -20 0 -11 23 -20 50
-20 28 0 50 7 50 16 0 9 67 16 150 15 98 -1 150 -9 150 -24 0 -12 14 -28 31
-35 18 -6 26 -3 19 8 -7 11 -5 21 4 21 9 1 50 4 91 7 41 3 75 -2 75 -11 0 -9
-7 -16 -15 -15 -46 8 -125 -4 -125 -18 0 -9 38 -11 85 -4 51 7 83 21 80 36 -3
13 6 24 20 24 17 1 15 7 -5 20 -16 11 -22 20 -13 20 10 0 44 -22 77 -50 32
-27 72 -50 88 -50 15 0 33 0 38 0 6 0 9 6 8 13 -3 28 51 43 95 26 31 -12 47
-11 47 4 0 12 14 15 35 7 70 -29 155 -6 155 42 0 36 -20 38 -300 42 -165 2
-450 7 -634 12 -255 6 -336 2 -344 -17z"/>
<path d="M1038 2865 c-2 -8 -2 -22 0 -31 1 -8 -11 -20 -28 -27 -42 -16 -37
-62 10 -87 43 -23 65 22 56 115 -4 42 -33 64 -38 30z"/>
<path d="M1240 2780 c-15 -10 -37 -12 -47 -6 -12 8 -12 1 -2 -16 10 -15 20
-40 22 -55 5 -35 27 -56 27 -26 0 41 5 53 36 75 37 27 4 52 -36 28z"/>
<path d="M251 2561 c-17 -26 -6 -281 11 -281 45 0 73 270 29 287 -16 6 -35 3
-40 -6z"/>
<path d="M0 2472 c0 -35 9 -73 21 -85 27 -27 28 -199 2 -377 -31 -217 -30
-1919 1 -1970 34 -53 45 -51 49 10 1 27 -5 45 -14 40 -9 -6 -22 9 -30 32 -8
26 -3 49 11 58 14 9 20 25 13 35 -15 24 35 71 54 51 7 -7 13 2 13 20 0 19 -11
28 -27 22 -15 -5 -38 4 -52 21 -22 27 -18 31 27 31 39 0 52 10 52 41 0 23 9
59 21 80 16 31 14 39 -10 39 -31 0 -36 -12 -36 -95 0 -25 -11 -45 -23 -45 -45
0 -35 582 18 1090 4 33 17 164 29 290 12 127 25 253 31 280 5 28 14 104 20
170 6 66 15 152 20 190 10 69 8 71 -90 103 l-100 33 0 -64z"/>
<path d="M1409 2478 c-11 -18 -7 -80 21 -318 10 -85 34 -119 62 -91 32 32 38
80 8 61 -11 -7 -20 -3 -20 9 0 11 9 21 20 21 12 0 8 30 -10 72 -37 89 -37 88
1 88 39 0 32 94 -10 145 -34 40 -53 44 -72 13z"/>
<path d="M5435 2409 c-38 -51 -46 -78 -16 -60 10 6 25 1 33 -12 8 -14 6 -18
-8 -10 -43 27 -48 -32 -5 -74 43 -42 44 -42 72 -4 37 50 37 73 -1 58 -39 -15
-38 2 1 42 20 19 23 31 8 31 -13 0 -18 13 -12 28 18 49 -35 49 -72 1z"/>
<path d="M220 1990 c0 -82 -1 -152 -2 -155 -18 -50 -28 -179 -15 -187 9 -6 17
15 17 46 0 31 8 88 19 126 40 156 47 320 13 320 -26 0 -32 -26 -32 -150z"/>
<path d="M4688 1898 c-21 -23 -34 -44 -30 -45 4 -2 -12 -42 -36 -90 -47 -92
-45 -116 9 -95 22 8 30 27 23 52 -6 22 -4 40 4 40 7 0 28 41 47 90 38 102 36
106 -17 48z"/>
<path d="M4860 1811 c0 -36 8 -47 30 -38 17 6 30 28 30 49 0 21 -13 38 -30 38
-19 0 -30 -19 -30 -49z"/>
<path d="M5212 1729 c-6 -18 -21 -26 -32 -19 -25 15 -26 -10 -2 -48 11 -16 32
-22 52 -15 27 11 29 20 11 41 -17 21 -17 30 2 36 17 6 18 13 3 22 -12 8 -27 0
-34 -17z"/>
<path d="M4540 1622 c0 -10 11 -24 25 -30 14 -6 6 -7 -17 -1 -24 5 -53 -3 -67
-20 -27 -32 -13 -71 25 -70 33 0 99 95 84 119 -16 25 -50 26 -50 2z"/>
<path d="M4535 1382 c-19 -19 -35 -64 -35 -99 0 -49 -9 -63 -39 -63 -37 0 -67
-29 -72 -70 -2 -11 -4 -32 -6 -46 -2 -15 -12 -21 -23 -14 -11 7 -20 3 -20 -9
0 -11 -14 -21 -32 -21 -24 0 -30 -18 -26 -75 4 -50 -2 -73 -18 -70 -13 3 -23
-2 -22 -10 7 -41 -6 -61 -44 -71 -23 -6 -37 -20 -30 -30 17 -29 -42 -70 -84
-59 -24 6 -37 -3 -39 -27 -3 -40 -149 -198 -182 -198 -11 0 -23 -9 -27 -21 -4
-12 -20 -23 -36 -26 -17 -2 -52 -19 -79 -38 -38 -26 -53 -29 -65 -10 -10 17
-15 10 -16 -18 0 -38 -9 -43 -70 -35 -49 6 -69 1 -65 -16 7 -33 -80 -45 -115
-16 -16 13 -39 17 -51 9 -17 -10 -16 -19 4 -31 21 -14 22 -17 1 -18 -15 0 -21
-8 -15 -18 16 -26 -39 -15 -76 15 -23 20 -40 20 -73 3 -24 -13 -49 -18 -55
-12 -6 7 0 12 14 12 21 0 21 6 1 30 -26 31 -62 41 -57 15 2 -8 -4 -31 -12 -51
-9 -20 -12 -40 -7 -45 19 -18 254 -34 290 -19 20 9 63 18 96 20 295 19 1070
628 1070 841 0 13 31 63 69 111 66 82 67 89 35 124 -31 35 -31 39 5 66 37 27
37 28 -10 27 -27 -1 -65 -17 -84 -37z"/>
<path d="M5042 1305 c-62 -57 -40 -80 46 -48 135 48 270 -80 316 -299 l24
-117 111 -33 c201 -62 366 -176 429 -298 31 -59 32 -57 32 106 0 93 -8 161
-18 155 -10 -6 -24 14 -32 44 -8 30 -19 44 -24 30 -5 -14 -22 -25 -38 -25 -16
0 -34 -13 -41 -30 -8 -22 -20 -24 -48 -9 -49 26 -29 85 23 68 21 -6 38 -2 38
10 0 32 -93 25 -129 -11 -40 -40 -163 3 -128 45 14 17 8 36 -20 64 -22 22 -34
45 -28 51 6 7 0 12 -15 12 -15 0 -21 6 -14 13 8 7 0 23 -16 35 -26 20 -44 75
-49 148 0 17 -15 22 -40 14 -35 -11 -95 50 -71 73 10 10 -31 16 -150 22 -49 3
-94 10 -100 15 -5 6 -32 -10 -58 -35z m917 -580 c1 -16 -12 -13 -38 9 -31 26
-35 40 -16 62 24 29 50 -6 54 -71z"/>
<path d="M4625 1150 c-41 -76 -52 -223 -18 -223 40 0 62 98 34 150 -15 29 -14
42 2 47 13 5 19 21 13 37 -7 22 -14 20 -31 -11z"/>
<path d="M4900 1136 c-68 -64 -240 -269 -240 -286 0 -7 -14 -27 -31 -43 -32
-33 -100 -21 -79 13 7 11 3 20 -9 20 -11 0 -21 -13 -21 -30 0 -16 -15 -30 -32
-30 -28 0 -29 -5 -7 -31 29 -35 -71 -137 -111 -113 -11 6 -7 -5 10 -25 27 -33
26 -39 -9 -59 -22 -12 -65 -46 -96 -76 -30 -29 -73 -59 -93 -66 -21 -6 -43
-25 -50 -41 -6 -16 -25 -29 -41 -29 -18 0 -31 -17 -31 -40 0 -46 7 -48 64 -18
37 20 41 18 31 -20 -6 -23 0 -49 14 -57 37 -22 48 -70 26 -113 -16 -31 -14
-36 13 -26 23 9 32 1 32 -27 0 -98 94 -41 132 81 11 39 32 68 45 65 12 -3 24
2 25 10 1 8 4 35 6 60 7 60 -58 80 -109 34 -24 -22 -39 -61 -39 -102 0 -76
-33 -89 -58 -23 -55 150 138 278 251 165 58 -59 53 -128 -17 -203 -45 -48 -37
-99 16 -120 21 -8 44 2 60 26 49 70 70 89 89 77 11 -6 19 -2 19 8 0 11 -16 24
-35 29 -26 7 -24 10 10 12 25 1 45 12 45 24 0 12 -14 17 -31 10 -20 -7 -26 -4
-17 12 10 15 4 19 -17 11 -44 -17 -57 27 -20 69 31 36 16 84 -22 70 -16 -6
-22 16 -20 68 3 43 -3 78 -12 78 -9 0 -22 14 -29 31 -9 24 -2 29 26 19 45 -14
66 11 43 49 -33 53 -2 86 50 52 52 -34 74 -17 78 57 5 83 43 124 82 91 33 -27
35 -25 25 25 -8 44 -2 55 32 60 35 5 41 18 36 76 -4 53 -1 63 15 40 11 -16 21
-22 21 -13 0 10 14 7 30 -7 26 -21 29 -20 19 5 -6 17 2 35 20 42 17 6 31 30
31 52 0 23 13 41 30 41 17 0 30 13 30 29 0 22 -13 24 -59 11 -36 -10 -61 -9
-65 3 -4 11 -29 -1 -56 -27z"/>
<path d="M1530 956 c-184 -39 -370 -216 -370 -353 0 -68 -21 -88 -130 -125
-44 -14 -89 -33 -99 -42 -10 -9 -34 -16 -52 -16 -46 0 -107 -58 -147 -140 -19
-38 -71 -97 -116 -130 -45 -33 -95 -80 -111 -105 l-30 -45 138 2 c75 0 126 6
112 11 -31 13 -33 47 -4 47 28 0 79 51 79 79 0 11 10 21 21 21 12 0 16 9 9 20
-7 11 6 20 29 20 22 0 41 8 41 18 0 9 18 22 40 28 22 6 40 0 40 -12 0 -12 13
-4 28 17 21 29 23 43 5 54 -13 8 7 15 44 15 50 0 69 10 77 40 6 22 18 35 27
29 9 -5 22 -1 28 10 7 10 23 15 37 10 31 -12 79 95 62 138 -10 26 -4 30 23 20
25 -10 31 -7 20 11 -20 33 27 142 61 142 16 0 28 10 28 22 0 16 9 15 30 -2 24
-20 30 -20 30 3 0 19 28 29 90 32 50 2 90 -4 90 -13 0 -10 16 -16 35 -15 19 2
35 -10 35 -27 0 -16 -16 -29 -35 -27 -19 1 -35 -5 -35 -15 0 -25 55 -23 70 2
7 12 22 15 34 8 13 -9 12 -18 -4 -28 -15 -9 -8 -18 21 -26 41 -11 52 280 11
320 -20 21 -169 22 -262 2z"/>
<path d="M3340 740 c0 -22 4 -40 8 -40 5 0 22 -5 39 -12 26 -10 27 -4 7 40
-29 62 -54 67 -54 12z"/>
<path d="M5274 728 c23 -18 26 -25 6 -18 -47 15 -84 -20 -77 -72 7 -48 15 -51
144 -56 44 -1 53 -8 38 -27 -11 -14 -17 -41 -14 -61 4 -22 -11 -43 -38 -54
-37 -15 -38 -18 -6 -19 29 -1 35 -11 26 -46 -7 -25 -13 -53 -13 -62 0 -10 -13
-12 -28 -6 -22 8 -28 -6 -25 -58 1 -38 9 -69 16 -69 38 0 77 28 77 54 0 18
-12 26 -29 19 -17 -6 -35 -3 -40 6 -14 21 30 39 64 26 14 -5 25 -24 26 -42 0
-18 14 3 30 47 16 44 24 91 19 105 -5 14 4 25 21 25 16 0 29 14 29 31 0 17 9
26 20 19 11 -7 20 8 20 35 0 26 11 58 23 70 18 18 16 27 -8 36 -19 7 -28 25
-21 43 10 26 4 25 -41 -4 -29 -19 -53 -44 -53 -55 0 -11 -12 -10 -29 4 -31 26
-3 80 39 74 11 -2 20 11 20 27 0 17 -11 31 -25 33 -14 1 -27 4 -30 7 -3 3 -44
8 -91 11 -78 5 -83 3 -50 -23z"/>
<path d="M1852 588 c-17 -44 -15 -50 13 -47 73 10 97 -2 85 -41 -8 -24 -4 -40
10 -40 12 0 16 10 9 22 -9 15 -1 18 23 11 21 -7 50 -4 66 5 21 14 17 21 -17
32 -25 8 -62 31 -83 52 -46 46 -90 49 -106 6z"/>
<path d="M2060 459 c-24 -15 -20 -18 16 -19 26 0 60 -13 77 -30 34 -34 87 -40
87 -10 0 11 -14 20 -31 20 -17 0 -50 13 -75 29 -30 20 -54 23 -74 10z"/>
<path d="M5795 466 c-19 -5 -35 -17 -35 -27 0 -11 -20 -19 -45 -19 -113 -1
-199 -80 -180 -165 10 -43 85 -47 85 -5 0 21 22 30 76 30 86 0 124 -28 124
-92 0 -28 16 -48 45 -55 87 -24 115 -15 115 34 0 62 -39 173 -61 173 -10 0
-13 14 -6 30 6 17 2 30 -9 30 -10 0 -24 18 -30 40 -10 41 -16 43 -79 26z"/>
<path d="M2260 340 c0 -11 14 -20 30 -20 17 0 40 -21 52 -46 13 -28 40 -47 73
-50 52 -4 52 -3 14 31 -88 80 -169 120 -169 85z"/>
<path d="M3920 319 c0 -12 -8 -16 -18 -10 -9 6 -22 -7 -28 -29 -7 -28 -21 -37
-47 -28 -28 9 -30 7 -10 -8 35 -25 103 -7 103 27 0 15 16 36 35 47 33 20 33
21 0 21 -19 1 -35 -9 -35 -20z"/>
<path d="M4730 280 c-27 -44 32 -58 110 -26 48 20 47 21 -26 29 -42 5 -80 4
-84 -3z"/>
<path d="M2454 211 c-26 -19 -29 -29 -10 -36 16 -5 5 -21 -29 -44 -30 -20 -55
-48 -55 -63 0 -20 12 -16 40 12 50 50 181 54 252 7 38 -25 56 -27 73 -10 13
13 14 23 4 24 -10 0 4 13 31 29 54 31 33 40 -75 31 -26 -2 -45 3 -43 13 9 53
-4 64 -53 46 -67 -26 -115 -25 -99 0 16 27 7 24 -36 -9z"/>
<path d="M5650 74 c-22 -13 -44 -29 -50 -36 -5 -7 -23 -17 -40 -23 -16 -7 54
-13 156 -13 182 -2 230 20 104 48 -33 7 -65 21 -71 32 -15 24 -50 21 -99 -8z"/>
<path d="M2470 31 c-37 -28 -34 -30 57 -30 68 -1 94 6 88 24 -12 37 -99 41
-145 6z"/>
<path d="M5324 29 c-22 -25 -17 -29 35 -29 65 0 82 28 29 48 -38 15 -33 16
-64 -19z"/>
</g>
</svg>
